<svg width="91" height="29" viewBox="0 0 91 29" fill="none" xmlns="http://www.w3.org/2000/svg">
<path d="M25.6279 23.192C24.2519 23.192 23.0279 22.904 21.9559 22.328C20.8999 21.752 20.0599 20.968 19.4359 19.976C18.8279 18.968 18.5239 17.824 18.5239 16.544C18.5239 15.248 18.8279 14.104 19.4359 13.112C20.0599 12.104 20.8999 11.32 21.9559 10.76C23.0279 10.184 24.2519 9.896 25.6279 9.896C26.9879 9.896 28.2039 10.184 29.2759 10.76C30.3479 11.32 31.1879 12.096 31.7959 13.088C32.4039 14.08 32.7079 15.232 32.7079 16.544C32.7079 17.824 32.4039 18.968 31.7959 19.976C31.1879 20.968 30.3479 21.752 29.2759 22.328C28.2039 22.904 26.9879 23.192 25.6279 23.192ZM25.6279 20.12C26.2519 20.12 26.8119 19.976 27.3079 19.688C27.8039 19.4 28.1959 18.992 28.4839 18.464C28.7719 17.92 28.9159 17.28 28.9159 16.544C28.9159 15.792 28.7719 15.152 28.4839 14.624C28.1959 14.096 27.8039 13.688 27.3079 13.4C26.8119 13.112 26.2519 12.968 25.6279 12.968C25.0039 12.968 24.4439 13.112 23.9479 13.4C23.4519 13.688 23.0519 14.096 22.7479 14.624C22.4599 15.152 22.3159 15.792 22.3159 16.544C22.3159 17.28 22.4599 17.92 22.7479 18.464C23.0519 18.992 23.4519 19.4 23.9479 19.688C24.4439 19.976 25.0039 20.12 25.6279 20.12ZM38.3064 20.36L38.4024 15.8L44.4264 10.088H48.8904L43.1064 15.968L41.1624 17.552L38.3064 20.36ZM35.2104 23V5.192H38.9544V23H35.2104ZM44.8344 23L40.4664 17.576L42.8184 14.672L49.3704 23H44.8344ZM56.2678 23.192C55.1958 23.192 54.2358 22.984 53.3878 22.568C52.5558 22.152 51.9078 21.52 51.4438 20.672C50.9798 19.808 50.7478 18.712 50.7478 17.384V10.088H54.4918V16.832C54.4918 17.904 54.7158 18.696 55.1638 19.208C55.6278 19.704 56.2758 19.952 57.1078 19.952C57.6838 19.952 58.1958 19.832 58.6438 19.592C59.0918 19.336 59.4438 18.952 59.6998 18.44C59.9558 17.912 60.0838 17.256 60.0838 16.472V10.088H63.8278V23H60.2758V19.448L60.9238 20.48C60.4918 21.376 59.8518 22.056 59.0038 22.52C58.1718 22.968 57.2598 23.192 56.2678 23.192ZM67.5604 23V6.2H71.4484V23H67.5604ZM83.0194 9.896C84.0434 9.896 84.9554 10.104 85.7554 10.52C86.5714 10.92 87.2114 11.544 87.6754 12.392C88.1394 13.224 88.3714 14.296 88.3714 15.608V23H84.6274V16.184C84.6274 15.144 84.3954 14.376 83.9314 13.88C83.4834 13.384 82.8434 13.136 82.0114 13.136C81.4194 13.136 80.8834 13.264 80.4034 13.52C79.9394 13.76 79.5714 14.136 79.2994 14.648C79.0434 15.16 78.9154 15.816 78.9154 16.616V23H75.1714V10.088H78.7474V13.664L78.0754 12.584C78.5394 11.72 79.2034 11.056 80.0674 10.592C80.9314 10.128 81.9154 9.896 83.0194 9.896Z" fill="#175398"/>
<path d="M7.63281 6C9.45647 6.00004 11.0642 6.35187 12.4561 7.05566C13.8481 7.74366 14.9367 8.71196 15.7207 9.95996C16.5047 11.2079 16.8965 12.6884 16.8965 14.4004C16.8964 16.0961 16.5046 17.576 15.7207 18.8398C14.9367 20.0878 13.8481 21.0636 12.4561 21.7676C11.0642 22.4555 9.4566 22.7998 7.63281 22.7998H0V15.5H3.39648V20.2734L13.3965 14.5L3.39648 8.72656V13.5H0V6H7.63281Z" fill="#175398"/>
</svg>
