<svg width="83" height="107" viewBox="0 0 83 107" fill="none" xmlns="http://www.w3.org/2000/svg">
<path d="M6 0H68C76.2843 0 83 6.71573 83 15V103H6V0Z" fill="#175398"/>
<path d="M43.3213 9.5C46.6145 9.50011 49.7943 10.7038 52.2617 12.8848L70.9404 29.3965C73.8394 31.9589 75.4999 35.6417 75.5 39.5107V105.5H1.5V9.5H43.3213Z" fill="white" stroke="black" stroke-width="3"/>
<path d="M43.6631 8.00391C47.1998 8.08456 50.5987 9.41305 53.2549 11.7607L71.9346 28.2725C75.1554 31.1196 76.9999 35.2119 77 39.5107V107H0V8H43.3213L43.6631 8.00391ZM3 104H74V39.5107C73.9999 36.0716 72.524 32.7982 69.9473 30.5205L61.7949 23.3145L47.9355 38.2725L64.3887 37.6455C65.7682 37.5932 66.9299 38.6693 66.9824 40.0488C67.0349 41.4285 65.9578 42.59 64.5781 42.6426L42.0947 43.498C40.7152 43.5503 39.5545 42.4743 39.502 41.0947L38.6455 18.6113C38.5932 17.2318 39.6693 16.0701 41.0488 16.0176C42.4284 15.9651 43.5889 17.0414 43.6416 18.4209L44.2686 34.874L58.0488 20.002L51.2686 14.0088C49.0752 12.0701 46.2486 11.0001 43.3213 11H3V104Z" fill="url(#paint0_linear_42_93)"/>
<rect x="11" y="54" width="56" height="2.29091" rx="1.14545" fill="#64A7FF"/>
<rect x="11" y="60.2909" width="56" height="2.29091" rx="1.14545" fill="#64A7FF"/>
<rect x="11" y="66.5818" width="56" height="2.29091" rx="1.14545" fill="#64A7FF"/>
<rect x="11" y="72.8727" width="56" height="2.29091" rx="1.14545" fill="#64A7FF"/>
<rect x="11" y="79.1636" width="56" height="2.29091" rx="1.14545" fill="#64A7FF"/>
<rect x="11" y="85.4545" width="56" height="2.29091" rx="1.14545" fill="#64A7FF"/>
<defs>
<linearGradient id="paint0_linear_42_93" x1="38.5" y1="8" x2="38.5" y2="107" gradientUnits="userSpaceOnUse">
<stop stop-color="#1A78F3"/>
<stop offset="1" stop-color="#00A6FF"/>
</linearGradient>
</defs>
</svg>
